<?xml version="1.0"?>
<svg xmlns="http://www.w3.org/2000/svg" xmlns:xlink="http://www.w3.org/1999/xlink" version="1.1" id="Capa_1" x="0px" y="0px" viewBox="0 0 525.938 525.938" style="enable-background:new 0 0 525.938 525.938;" xml:space="preserve" width="512px" height="512px"><g><g>
	<g>
		<path d="M508.605,17.332C497.051,5.777,482.908,0,466.172,0H59.766C43.032,0,28.887,5.777,17.332,17.332    C5.777,28.887,0,43.031,0,59.766v406.406c0,16.731,5.777,30.879,17.332,42.434c11.555,11.558,25.699,17.332,42.434,17.332h406.406    c16.734,0,30.879-5.774,42.434-17.332c11.559-11.555,17.332-25.699,17.332-42.434V59.766    C525.938,43.032,520.162,28.887,508.605,17.332z M453.023,393.855l-59.168,59.168L262.969,322.137L132.082,453.023l-59.168-59.168    l130.887-130.887L72.914,132.082l59.168-59.168l130.887,130.887L393.855,72.914l59.168,59.168L322.137,262.969L453.023,393.855z" data-original="#010002" class="active-path" data-old_color="#ec0080" fill="#ec0080"/>
	</g>
</g></g> </svg>
